<?xml version="1.0" encoding="UTF-8" standalone="no"?>
<!DOCTYPE svg PUBLIC "-//W3C//DTD SVG 1.1//EN" "http://www.w3.org/Graphics/SVG/1.1/DTD/svg11.dtd">
<svg xmlns="http://www.w3.org/2000/svg" xmlns:xl="http://www.w3.org/1999/xlink" version="1.1" viewBox="0 0 425.19685 340.15748" width="425.19685pt" height="340.15748pt" xmlns:dc="http://purl.org/dc/elements/1.1/"><metadata> Produced by OmniGraffle 6.6.2 <dc:date>2017-06-07 11:56:44 +0000</dc:date></metadata><defs/><g stroke="none" stroke-opacity="1" stroke-dasharray="none" fill="none" fill-opacity="1"><title>Canvas 1</title><g><title>Layer 1</title><path d="M 96.507615 233.51889 L 109.895615 264.44689 L 123.331615 233.51889 L 130.806615 272.45889 L 126.605615 272.45889 L 121.865615 247.54089 L 121.768615 247.54089 L 109.895615 273.97389 L 98.070615 247.54089 L 97.973615 247.54089 L 93.234615 272.45889 L 89.032615 272.45889 Z" fill="#FFFFFF"/><path d="M 156.229315 243.43689 L 149.926315 258.19289 L 162.385315 258.19289 Z M 148.265315 262.00289 L 143.819315 272.45889 L 139.324315 272.45889 L 156.327315 233.86089 L 172.89031 272.45889 L 168.34631 272.45889 L 163.99831 262.00289 Z" fill="#FFFFFF"/><path d="M 191.45001 268.64879 C 195.94501 268.64879 199.70701 268.01279 203.07801 264.83679 C 206.10701 262.00279 207.67101 258.14379 207.67101 254.03979 C 207.67101 249.83779 206.05801 245.78279 202.88301 242.99779 C 199.51201 240.01679 195.79901 239.43079 191.45001 239.43079 L 188.47001 239.43079 L 188.47001 268.64879 Z M 184.36501 235.61979 L 191.30401 235.61979 C 196.82401 235.61979 201.31901 236.35279 205.66801 240.06579 C 209.87001 243.68179 211.77501 248.61679 211.77501 254.08779 C 211.77501 259.46279 209.82101 264.20279 205.76501 267.81779 C 201.36801 271.72679 196.97101 272.45979 191.20601 272.45979 L 184.36501 272.45979 Z" fill="#FFFFFF"/><path d="M 225.07301 235.61949 L 244.17701 235.61949 L 244.17701 239.43149 L 229.17701 239.43149 L 229.17701 250.37549 L 243.73701 250.37549 L 243.73701 254.18549 L 229.17701 254.18549 L 229.17701 268.64849 L 244.17701 268.64849 L 244.17701 272.45949 L 225.07301 272.45949 Z" fill="#FFFFFF"/><rect x="280.83861" y="235.42229" width="4.104" height="36.84" fill="#FFFFFF"/><path d="M 300.05741 233.85879 L 328.78641 263.95679 L 328.78641 235.42179 L 332.89041 235.42179 L 332.89041 273.92279 L 304.16141 243.87579 L 304.16141 272.26179 L 300.05741 272.26179 Z" fill="#FFFFFF"/><path d="M 26.576915 327.91439 L 36.739915 327.91439 L 36.739915 331.72539 L 22.472915 331.72539 L 22.472915 294.88539 L 26.576915 294.88539 Z" fill="#FFFFFF"/><path d="M 52.156015 316.82259 C 52.156015 319.55859 52.058015 322.68559 53.768015 325.03159 C 55.381015 327.27859 58.508015 328.54959 61.195015 328.54959 C 63.833015 328.54959 66.716015 327.32759 68.426015 325.27559 C 70.381015 322.92959 70.234015 319.70559 70.234015 316.82259 L 70.234015 294.88459 L 74.338015 294.88459 L 74.338015 317.94659 C 74.338015 321.95359 74.045015 325.12959 71.113015 328.15859 C 68.572015 330.89359 64.908015 332.35959 61.195015 332.35959 C 57.726015 332.35959 54.159015 331.04159 51.668015 328.59759 C 48.443015 325.51959 48.052015 322.14859 48.052015 317.94659 L 48.052015 294.88459 L 52.156015 294.88459 Z" fill="#FFFFFF"/><path d="M 86.823015 294.88509 L 91.513015 294.88509 L 99.038015 308.76109 L 106.562015 294.88509 L 111.253015 294.88509 L 101.285015 312.67009 L 112.180015 331.72509 L 107.490015 331.72509 L 99.038015 316.57809 L 90.585015 331.72509 L 85.894015 331.72509 L 96.790015 312.67009 Z" fill="#FFFFFF"/><path d="M 123.884515 294.88509 L 142.988515 294.88509 L 142.988515 298.69709 L 127.988515 298.69709 L 127.988515 309.64109 L 142.548515 309.64109 L 142.548515 313.45109 L 127.988515 313.45109 L 127.988515 327.91409 L 142.988515 327.91409 L 142.988515 331.72509 L 123.884515 331.72509 Z" fill="#FFFFFF"/><path d="M 163.117915 292.78449 L 176.50591 323.71249 L 189.94191 292.78449 L 197.41691 331.72449 L 193.21591 331.72449 L 188.47591 306.80649 L 188.37891 306.80649 L 176.50591 333.23949 L 164.68091 306.80649 L 164.58391 306.80649 L 159.844915 331.72449 L 155.642915 331.72449 Z" fill="#FFFFFF"/><path d="M 213.56811 327.91439 L 217.67211 327.91439 C 222.26511 327.91439 227.10211 326.79039 227.10211 321.17139 C 227.10211 315.45539 221.63011 314.62439 217.13411 314.62439 L 213.56811 314.62439 Z M 213.56811 311.10639 L 215.13111 311.10639 C 219.77311 311.10639 223.73011 310.56839 223.73011 304.85239 C 223.73011 299.28239 220.21311 298.69639 215.18011 298.69639 L 213.56811 298.69639 Z M 209.46411 294.88539 L 215.52211 294.88539 C 222.21611 294.88539 227.83511 297.32839 227.83511 304.85239 C 227.83511 307.83339 226.71111 310.37339 224.21911 312.03439 C 228.61711 313.10939 231.20611 317.06739 231.20611 321.46439 C 231.20611 328.79339 225.29511 331.72539 218.01411 331.72539 L 209.46411 331.72539 Z" fill="#FFFFFF"/><path d="M 246.81911 313.30499 C 246.81911 321.61199 253.56111 328.54899 261.91611 328.54899 C 270.27111 328.54899 277.01311 321.61199 277.01311 313.30499 C 277.01311 304.95099 270.36911 298.06099 261.91611 298.06099 C 253.46411 298.06099 246.81911 304.95099 246.81911 313.30499 M 281.11811 313.35399 C 281.11811 323.95599 272.42111 332.35999 261.91611 332.35999 C 251.41211 332.35999 242.71511 323.95599 242.71511 313.35399 C 242.71511 302.80099 251.41211 294.24999 261.91611 294.24999 C 272.42111 294.24999 281.11811 302.80099 281.11811 313.35399" fill="#FFFFFF"/><path d="M 298.05051 316.82259 C 298.05051 319.55859 297.95251 322.68559 299.66251 325.03159 C 301.27551 327.27859 304.40251 328.54959 307.08951 328.54959 C 309.72751 328.54959 312.61051 327.32759 314.32051 325.27559 C 316.27551 322.92959 316.12851 319.70559 316.12851 316.82259 L 316.12851 294.88459 L 320.23251 294.88459 L 320.23251 317.94659 C 320.23251 321.95359 319.93951 325.12959 317.00751 328.15859 C 314.46651 330.89359 310.80251 332.35959 307.08951 332.35959 C 303.62051 332.35959 300.05351 331.04159 297.56251 328.59759 C 294.33751 325.51959 293.94651 322.14859 293.94651 317.94659 L 293.94651 294.88459 L 298.05051 294.88459 Z" fill="#FFFFFF"/><path d="M 338.97241 311.93689 L 340.24341 311.93689 C 344.88441 311.93689 349.57541 311.05789 349.57541 305.34089 C 349.57541 299.28289 345.12841 298.69689 340.19441 298.69689 L 338.97241 298.69689 Z M 338.97241 331.72489 L 334.86841 331.72489 L 334.86841 294.88489 L 340.19441 294.88489 C 347.18041 294.88489 353.67841 296.74289 353.67841 305.04789 C 353.67841 310.71589 350.11241 314.72189 344.44541 315.20989 L 356.17041 331.72489 L 351.13841 331.72489 L 339.99841 315.55289 L 338.97241 315.55289 Z" fill="#FFFFFF"/><path d="M 402.95391 313.20739 C 403.05191 318.19039 402.51491 322.29539 399.14291 326.20339 C 395.77191 330.11239 390.64091 332.35939 385.51191 332.35939 C 375.15391 332.35939 366.55491 323.76139 366.55491 313.40239 C 366.55491 302.85039 375.15391 294.25039 385.75591 294.25039 C 392.20491 294.25039 397.43291 297.13339 401.34191 302.21439 L 398.36091 304.99939 C 395.28291 300.65039 391.13091 298.06139 385.70691 298.06139 C 377.30391 298.06139 370.65891 305.14539 370.65891 313.45139 C 370.65891 317.36039 372.22291 321.07339 374.95791 323.85839 C 377.64491 326.54639 381.55491 328.54939 385.41391 328.54939 C 391.81391 328.54939 398.55691 323.85839 398.55691 317.01939 L 387.61191 317.01939 L 387.61191 313.20739 Z" fill="#FFFFFF"/><path d="M 212.40891 14.099989 C 223.02591 14.124989 231.67291 22.775989 231.68891 33.37999 C 231.67291 43.99499 223.02191 52.64599 212.41591 52.66599 C 201.79891 52.64599 193.14491 43.99499 193.12491 33.39099 C 193.14491 22.775989 201.79491 14.124989 212.40891 14.099989 M 212.40891 59.84999 C 227.00191 59.84799 238.87291 47.97599 238.87291 33.38399 C 238.87291 18.789989 227.00191 6.917989 212.40891 6.917989 C 197.81491 6.917989 185.94291 18.789989 185.94291 33.38399 C 185.94291 47.97599 197.81491 59.84799 212.40891 59.84999 M 323.54991 139.24499 C 323.55191 147.11799 322.22591 155.03399 319.71591 162.13199 C 315.68591 173.50999 307.35191 182.22399 301.06891 187.53099 C 297.46891 190.57099 294.14891 192.83999 291.99891 194.20699 C 291.75491 194.36199 291.51891 194.50999 291.29391 194.64899 C 285.32891 183.40899 282.30791 171.91599 282.30791 160.44499 C 282.30791 143.37099 289.08591 127.25999 301.39391 115.07299 C 305.31191 111.19199 309.67491 107.83799 314.38891 105.08299 C 320.38691 115.04499 323.54291 126.79199 323.54991 139.24499 M 231.45791 143.35799 C 231.45991 145.99299 231.32591 148.68399 231.06191 151.35499 C 229.89491 162.92999 224.39291 172.84199 219.98391 179.12099 C 217.37491 182.83499 214.83391 185.74599 213.05491 187.62799 C 212.93591 187.50099 212.81291 187.36999 212.68591 187.23399 C 207.95891 182.15399 196.77591 168.48599 195.05491 151.35499 C 194.78691 148.69899 194.65291 146.00799 194.65491 143.35599 C 194.65291 123.91399 201.32491 105.99399 213.05691 93.66899 C 224.78791 105.99399 231.45991 123.91399 231.45791 143.35799 M 124.720915 115.07499 C 137.026915 127.25999 143.804915 143.37099 143.804915 160.44499 C 143.804915 171.91799 140.783915 183.40899 134.820915 194.65099 C 132.440915 193.17499 128.906915 190.79099 125.047915 187.53099 C 118.763915 182.22199 110.427915 173.50799 106.400915 162.13199 C 103.889915 155.04399 102.562915 147.13099 102.562915 139.24599 C 102.571915 126.79199 105.727915 115.04699 111.722915 105.08299 C 116.441915 107.84299 120.804915 111.19699 124.720915 115.07499 M 416.05891 161.58299 C 416.08491 142.18199 410.45691 107.52599 366.35191 92.76299 C 359.51691 90.47199 352.43791 89.30799 345.31091 89.30799 C 335.61291 89.31099 325.79991 91.50799 316.77091 95.68299 C 307.76091 83.64899 295.10391 75.08999 279.13691 70.22899 C 278.23891 69.94699 270.04491 67.46299 258.60291 67.45899 C 246.42091 67.45899 228.86591 70.34199 213.06591 83.73599 C 197.61191 70.19999 180.19291 67.28699 168.06291 67.28899 C 156.243915 67.29099 147.843915 69.94699 146.986915 70.22899 C 131.001915 75.09299 118.349915 83.64899 109.341915 95.68499 C 100.312915 91.51199 90.501915 89.31299 80.800915 89.31099 C 73.674915 89.31099 66.596915 90.47199 59.765915 92.76299 C 15.657915 107.52199 9.112915 142.27999 9.137915 161.67999 C 9.137915 174.25099 11.689915 183.44499 11.993915 184.49399 L 32.770915 266.45699 L 33.533915 269.47999 L 36.553915 268.71799 L 37.523915 268.47399 L 40.551915 267.71099 L 39.786915 264.68699 L 18.979915 182.61299 L 18.960915 182.53699 L 18.941915 182.47399 C 18.936915 182.45499 18.316915 180.34699 17.678915 176.70299 C 17.081915 173.29999 16.372915 167.93299 16.372915 161.68399 C 16.400915 140.35899 24.349915 112.28099 62.064915 99.62299 C 68.144915 97.58299 74.449915 96.54899 80.800915 96.54899 C 89.083915 96.54699 97.474915 98.34999 105.269915 101.78399 C 98.746915 112.80399 95.318915 125.67599 95.324915 139.24499 C 95.326915 147.94799 96.797915 156.69599 99.580915 164.54799 C 107.973915 188.18299 131.772915 201.37299 134.542915 202.84399 L 134.964915 203.06099 L 137.588915 204.40699 L 139.078915 201.86199 L 139.322915 201.44599 C 147.098915 188.08299 151.042915 174.28699 151.042915 160.44499 C 151.036915 135.21799 137.635915 112.03099 115.832915 99.10299 C 123.856915 88.81599 135.038915 81.43499 149.189915 77.12199 C 149.208915 77.11599 151.110915 76.48299 154.356915 75.84599 C 157.434915 75.24299 162.309915 74.52599 168.06291 74.52599 C 178.78791 74.52799 194.12191 77.05799 207.77391 88.72699 C 194.79791 102.39199 187.41691 122.09299 187.41691 143.35599 C 187.41691 146.26899 187.56491 149.20299 187.85591 152.08099 C 190.18391 175.01899 206.77391 191.77699 210.21291 195.02899 L 210.75391 195.59099 L 212.84591 197.76899 L 215.08891 195.74999 L 215.51491 195.38899 C 217.58491 193.48999 235.81491 176.14599 238.26091 152.07899 C 238.54791 149.20899 238.69391 146.27499 238.69391 143.35599 C 238.69191 122.10299 231.31891 102.41099 218.35791 88.74599 C 232.34291 77.20699 247.81691 74.69999 258.60291 74.69799 C 268.04291 74.69799 275.00591 76.55099 276.91391 77.11799 C 276.94991 77.12799 276.99091 77.14099 277.03491 77.15399 C 291.09491 81.44599 302.26291 88.82299 310.27991 99.10299 C 288.47691 112.03099 275.07591 135.21599 275.06891 160.44499 C 275.06891 174.29099 279.01291 188.08499 286.79791 201.45199 L 287.03791 201.86199 L 288.52791 204.40699 L 291.15091 203.06099 L 291.65891 202.79999 C 294.34491 201.37299 318.14191 188.18299 326.53591 164.54399 C 329.31691 156.68699 330.78791 147.93899 330.78791 139.24599 C 330.79391 125.67399 327.36591 112.80099 320.84291 101.78399 C 328.63391 98.34999 337.02191 96.54699 345.31091 96.54699 C 351.66291 96.54699 357.96791 97.58099 364.05191 99.62299 C 401.76291 112.28099 408.79491 140.25999 408.82291 161.57899 C 408.82291 172.15499 406.86491 180.13999 406.26391 182.33499 C 406.25191 182.38399 406.23291 182.45099 406.21591 182.53099 L 385.11491 263.25199 L 384.35491 266.26399 L 387.36491 267.03499 L 388.33491 267.28399 L 391.36591 268.05999 L 392.13091 265.02499 L 413.23391 184.28299 L 413.11891 184.63799 C 413.32891 183.96199 416.05691 174.68099 416.05891 161.58299" fill="#333F48"/></g></g></svg>
